# xmcd
#
# Track frame offsets:
# 150
# 16477
# 30825
# 57464
# 73960
# 90432
# 103208
# 118009
# 134735
# 153973
# 169392
# 183151
# 211846
# 230584
#
# Disc length: 3312 seconds
#
#
# Revision: 0
# Processed by: cddbd v1.5PL3 Copyright (c) Steve Scherf et al.
# Submitted via: FreeRIP 2.60 
#
DISCID=c20cee0e
DTITLE=Delicious Blues Stew - 2 Stew
DYEAR=2003
DGENRE=Blues
TTITLE0=Trouble
TTITLE1=Pirogue
TTITLE2=House Built On Love
TTITLE3=De Con
TTITLE4=Bayou Country
TTITLE5=Maw Maw, Paw Paw
TTITLE6=Just Like Her Dog
TTITLE7=Place We Fell In Love
TTITLE8=You Are My Sunshine
TTITLE9=The Best Thing
TTITLE10=Wigglin'
TTITLE11=Star Spangled Lady
TTITLE12=I'm The Man
TTITLE13=Mardi Gras Women
EXTD=Bluesfestradio.com
EXTT0=
EXTT1=
EXTT2=
EXTT3=
EXTT4=
EXTT5=
EXTT6=
EXTT7=
EXTT8=
EXTT9=
EXTT10=
EXTT11=
EXTT12=
EXTT13=
PLAYORDER=
